<svg width="145" height="39" viewBox="0 0 145 39" fill="none" xmlns="http://www.w3.org/2000/svg">
<path d="M17.934 12.15C16.758 10.092 14.112 8.79 11.34 8.79C5.292 8.748 0.546 12.486 0.546 19.626C0.546 26.892 5.082 30.672 11.214 30.63C13.524 30.588 16.758 29.412 17.934 26.976L18.186 30H23.016V9.294H18.102L17.934 12.15ZM11.802 13.368C19.866 13.368 19.866 25.926 11.802 25.926C8.4 25.926 5.67 23.574 5.67 19.626C5.67 15.678 8.4 13.368 11.802 13.368ZM32.4798 9.21V30H27.3558V9.21H32.4798ZM26.8938 3.456C26.8938 7.446 32.9418 7.446 32.9418 3.456C32.9418 -0.534002 26.8938 -0.534002 26.8938 3.456ZM52.9935 9.252L50.1375 16.182L46.9875 24.834L43.7955 16.098L40.9395 9.252H35.3535L44.2155 30.084H49.7595L58.5795 9.252H52.9935ZM77.3246 12.15C76.1486 10.092 73.5026 8.79 70.7306 8.79C64.6826 8.748 59.9366 12.486 59.9366 19.626C59.9366 26.892 64.4726 30.672 70.6046 30.63C72.9146 30.588 76.1486 29.412 77.3246 26.976L77.5766 30H82.4066V9.294H77.4926L77.3246 12.15ZM71.1926 13.368C79.2566 13.368 79.2566 25.926 71.1926 25.926C67.7906 25.926 65.0606 23.574 65.0606 19.626C65.0606 15.678 67.7906 13.368 71.1926 13.368ZM86.6204 27.354C86.6204 31.344 92.6684 31.344 92.6684 27.354C92.6684 23.364 86.6204 23.364 86.6204 27.354ZM109.369 13.578C112.645 13.578 115.249 15.888 115.249 19.626C115.249 23.238 112.645 25.716 109.369 25.716C106.135 25.716 103.363 23.364 103.363 19.626C103.363 16.014 106.135 13.578 109.369 13.578ZM97.9027 0.641997V30H102.691L103.027 27.144C104.623 29.622 107.185 30.462 109.705 30.462C115.795 30.462 120.373 26.43 120.373 19.626C120.373 12.486 115.879 8.79 109.831 8.79C107.647 8.79 104.245 9.966 103.027 12.108V0.641997H97.9027ZM138.454 9.294L134.674 18.366L132.532 24.078L130.558 18.24L127.408 9.294H121.444L129.718 29.664L125.854 38.652H131.482L144.124 9.294H138.454Z" fill="#0085FF"/>
</svg>
